<svg width="17" height="16" viewBox="0 0 17 16" fill="none" xmlns="http://www.w3.org/2000/svg">
<path fill-rule="evenodd" clip-rule="evenodd" d="M0.390382 0.407051C0.640419 0.15709 0.979496 0.0166691 1.33305 0.0166691C1.6866 0.0166691 2.02568 0.15709 2.27571 0.407051L7.99971 6.13105L13.7237 0.407051C13.8467 0.279704 13.9938 0.178128 14.1565 0.108249C14.3192 0.0383705 14.4941 0.00158876 14.6712 5.03427e-05C14.8482 -0.00148808 15.0238 0.0322472 15.1877 0.0992884C15.3515 0.16633 15.5004 0.265334 15.6256 0.390524C15.7508 0.515714 15.8498 0.664584 15.9168 0.828446C15.9839 0.992307 16.0176 1.16788 16.016 1.34492C16.0145 1.52196 15.9777 1.69692 15.9079 1.85959C15.838 2.02226 15.7364 2.16939 15.609 2.29238L9.88505 8.01638L15.609 13.7404C15.8519 13.9919 15.9863 14.3287 15.9833 14.6783C15.9802 15.0278 15.84 15.3623 15.5928 15.6095C15.3456 15.8567 15.0112 15.9969 14.6616 15.9999C14.312 16.003 13.9752 15.8686 13.7237 15.6257L7.99971 9.90172L2.27571 15.6257C2.02425 15.8686 1.68744 16.003 1.33785 15.9999C0.988251 15.9969 0.653835 15.8567 0.406624 15.6095C0.159413 15.3623 0.0191874 15.0278 0.0161495 14.6783C0.0131116 14.3287 0.147505 13.9919 0.390382 13.7404L6.11438 8.01638L0.390382 2.29238C0.140421 2.04235 0 1.70327 0 1.34972C0 0.996165 0.140421 0.657088 0.390382 0.407051Z" fill="#1E1E24"/>
</svg>
