<svg width="40" height="40" viewBox="0 0 40 40" fill="none" xmlns="http://www.w3.org/2000/svg">
<path fill-rule="evenodd" clip-rule="evenodd" d="M34.1421 34.1421C30.3914 37.8929 25.3043 40 20 40C14.6957 40 9.60859 37.8929 5.85786 34.1421C2.10714 30.3914 0 25.3043 0 20C0 14.6957 2.10714 9.60859 5.85786 5.85786C9.60859 2.10714 14.6957 0 20 0C25.3043 0 30.3914 2.10714 34.1421 5.85786C37.8929 9.60859 40 14.6957 40 20C40 25.3043 37.8929 30.3914 34.1421 34.1421ZM12.5 17.5H17.5H22.5H27.5C28.163 17.5 28.7989 17.7634 29.2678 18.2322C29.7366 18.7011 30 19.337 30 20C30 20.663 29.7366 21.2989 29.2678 21.7678C28.7989 22.2366 28.163 22.5 27.5 22.5H20H12.5C11.837 22.5 11.2011 22.2366 10.7322 21.7678C10.2634 21.2989 10 20.663 10 20C10 19.337 10.2634 18.7011 10.7322 18.2322C11.2011 17.7634 11.837 17.5 12.5 17.5Z" fill="#1E1E24"/>
</svg>
