<svg width="24" height="24" viewBox="0 0 24 24" fill="none" xmlns="http://www.w3.org/2000/svg">
<path d="M10.2234 4.37842H4.34954C3.72641 4.37842 3.12879 4.62596 2.68817 5.06658C2.24754 5.50721 2 6.10482 2 6.72796V19.6505C2 20.2736 2.24754 20.8712 2.68817 21.3118C3.12879 21.7525 3.72641 22 4.34954 22H17.272C17.8952 22 18.4928 21.7525 18.9334 21.3118C19.374 20.8712 19.6216 20.2736 19.6216 19.6505V13.7766M17.9605 2.71729C18.1772 2.49288 18.4365 2.31389 18.7231 2.19075C19.0098 2.06761 19.3181 2.0028 19.63 2.00009C19.942 1.99738 20.2514 2.05683 20.5401 2.17496C20.8289 2.2931 21.0912 2.46756 21.3118 2.68817C21.5324 2.90877 21.7069 3.1711 21.825 3.45985C21.9432 3.7486 22.0026 4.05799 21.9999 4.36996C21.9972 4.68193 21.9324 4.99024 21.8093 5.27689C21.6861 5.56355 21.5071 5.82281 21.2827 6.03954L11.1961 16.1261H7.87386V12.8039L17.9605 2.71729Z" stroke="#1E1E24" stroke-width="2.34954" stroke-linecap="round" stroke-linejoin="round"/>
</svg>
