<svg width="31" height="35" viewBox="0 0 31 35" fill="none" xmlns="http://www.w3.org/2000/svg">
<path d="M8.75 5.375H5.375C4.47989 5.375 3.62145 5.73058 2.98851 6.36351C2.35558 6.99645 2 7.85489 2 8.75V29C2 29.8951 2.35558 30.7535 2.98851 31.3865C3.62145 32.0194 4.47989 32.375 5.375 32.375H22.25C23.1451 32.375 24.0035 32.0194 24.6365 31.3865C25.2694 30.7535 25.625 29.8951 25.625 29V27.3125M8.75 5.375C8.75 6.27011 9.10558 7.12855 9.73852 7.76149C10.3715 8.39442 11.2299 8.75 12.125 8.75H15.5C16.3951 8.75 17.2535 8.39442 17.8865 7.76149C18.5194 7.12855 18.875 6.27011 18.875 5.375M8.75 5.375C8.75 4.47989 9.10558 3.62145 9.73852 2.98851C10.3715 2.35558 11.2299 2 12.125 2H15.5C16.3951 2 17.2535 2.35558 17.8865 2.98851C18.5194 3.62145 18.875 4.47989 18.875 5.375M18.875 5.375H22.25C23.1451 5.375 24.0035 5.73058 24.6365 6.36351C25.2694 6.99645 25.625 7.85489 25.625 8.75V13.8125M29 20.5625H12.125M12.125 20.5625L17.1875 15.5M12.125 20.5625L17.1875 25.625" stroke="#1E1E24" stroke-width="3.375" stroke-linecap="round" stroke-linejoin="round"/>
</svg>
