<svg width="26" height="22" viewBox="0 0 26 22" fill="none" xmlns="http://www.w3.org/2000/svg">
<path d="M10.9482 0.916992C11.1171 0.918536 11.2798 0.986258 11.4004 1.10742C11.5211 1.22876 11.5903 1.39413 11.5918 1.56738C11.5932 1.73872 11.5274 1.90239 11.4111 2.02539L4.69629 8.77051L3.13965 10.334H23.4893C23.6602 10.334 23.8252 10.4028 23.9473 10.5254C24.0693 10.6481 24.1386 10.8151 24.1387 10.9902C24.1387 11.1655 24.0695 11.3333 23.9473 11.4561C23.8252 11.5786 23.6601 11.6465 23.4893 11.6465H3.13965L4.69629 13.21L11.4189 19.9619C11.5411 20.0847 11.6104 20.2525 11.6104 20.4277C11.6103 20.6029 11.541 20.7699 11.4189 20.8926C11.297 21.015 11.1326 21.0829 10.9619 21.083C10.791 21.083 10.626 21.0152 10.5039 20.8926L1.1084 11.4561C0.986224 11.3333 0.916992 11.1655 0.916992 10.9902C0.917063 10.8151 0.986288 10.6481 1.1084 10.5254L10.4922 1.09863L10.4932 1.09961C10.6159 0.980651 10.7793 0.915518 10.9482 0.916992Z" fill="#1E1E24" stroke="#1E1E24" stroke-width="1.83333"/>
</svg>
