<svg width="34" height="34" viewBox="0 0 34 34" fill="none" xmlns="http://www.w3.org/2000/svg">
<path d="M11.4716 19.2368C11.8083 18.5635 11.9983 17.8035 11.9983 17.0002C11.9983 16.1969 11.8083 15.4369 11.4716 14.7636M11.4716 19.2368C10.9678 20.2441 10.1386 21.0518 9.11849 21.529C8.09833 22.0063 6.94693 22.1251 5.85081 21.8663C4.7547 21.6074 3.77808 20.9861 3.07917 20.1029C2.38026 19.2198 2 18.1265 2 17.0002C2 15.874 2.38026 14.7807 3.07917 13.8975C3.77808 13.0143 4.7547 12.393 5.85081 12.1342C6.94693 11.8753 8.09833 11.9942 9.11849 12.4714C10.1386 12.9486 10.9678 13.7563 11.4716 14.7636M11.4716 19.2368L22.5247 24.7634M11.4716 14.7636L22.5247 9.23708M22.5247 24.7634C21.9315 25.9497 21.8339 27.3232 22.2533 28.5815C22.6728 29.8398 23.5749 30.88 24.7613 31.4732C25.9476 32.0664 27.3211 32.164 28.5794 31.7445C29.8377 31.3251 30.8779 30.423 31.4711 29.2366C32.0643 28.0502 32.1619 26.6768 31.7424 25.4185C31.323 24.1601 30.4209 23.1199 29.2345 22.5268C28.6471 22.233 28.0075 22.0579 27.3524 22.0113C26.6973 21.9648 26.0394 22.0477 25.4164 22.2554C24.158 22.6749 23.1178 23.577 22.5247 24.7634ZM22.5247 9.23708C22.8184 9.82441 23.2249 10.3481 23.721 10.7783C24.2171 11.2086 24.7931 11.5368 25.4161 11.7445C26.0391 11.9521 26.6969 12.0349 27.3519 11.9883C28.0069 11.9417 28.6463 11.7666 29.2337 11.4729C29.821 11.1791 30.3447 10.7726 30.7749 10.2765C31.2051 9.78039 31.5334 9.2044 31.741 8.58141C31.9486 7.95842 32.0315 7.30064 31.9849 6.64562C31.9383 5.99061 31.7632 5.35118 31.4694 4.76386C30.8763 3.57771 29.8362 2.67578 28.578 2.25649C27.3198 1.8372 25.9466 1.9349 24.7604 2.52808C23.5743 3.12127 22.6724 4.16136 22.2531 5.41954C21.8338 6.67772 21.9315 8.05093 22.5247 9.23708Z" stroke="#1E1E24" stroke-width="3.33325" stroke-linecap="round" stroke-linejoin="round"/>
</svg>
